<svg width="100" height="100" viewBox="0 0 100 100" fill="none" xmlns="http://www.w3.org/2000/svg">
<g clip-path="url(#clip0_45_6)">
<path d="M12.5 27L36.6697 34.4368L40.7209 24.4776L45 10L55.0955 33.9408L78 27L65.4394 45.3757L87 54L67.1129 59.3866L78 78L45.5133 69.7467L12.5 78L26.3874 59.8118L5 54L25.336 44.8839L12.5 27Z" fill="#F1F1F1"/>
<path d="M34.9473 3.11719L34.9434 3.08301C34.8851 2.64859 34.9628 2.20685 35.167 1.81934C35.3602 1.45292 35.6579 1.15271 36.0205 0.954102L39.0537 0.488281H56.0586L70.4854 23.5967V72.7529L63.5098 76.168L61.5605 75.7666C61.4434 75.4803 61.4148 75.1638 61.4854 74.8594C61.5719 74.486 61.7981 74.1595 62.1172 73.9473L62.1377 73.9336L62.1562 73.918C63.3093 72.9762 64.5509 72.1482 65.8633 71.4453L65.8623 71.4443L68.0537 70.3457L68.3291 70.207V25.3994L68.0781 25.2559L61.7744 21.6289L61.0254 21.1973V29.2451L57.4053 32.5596L57.2432 32.709V39.834H55.667V48.3936H57.2432V55.2539H55.667V63.8135H57.2432V70.6885H55.667V79.2441H57.2432V86.1289L57.3115 86.2461L61.0254 92.5879V97.8232L61.0303 97.8594C61.0631 98.0819 61.0433 98.3091 60.9727 98.5225C60.9019 98.736 60.7823 98.93 60.623 99.0889C60.4639 99.2476 60.2694 99.3672 60.0557 99.4375C59.8422 99.5077 59.6149 99.5275 59.3926 99.4941L59.3555 99.4883H31.249L31.2129 99.4932C30.9908 99.5259 30.764 99.5071 30.5508 99.4365C30.3375 99.3659 30.144 99.2456 29.9854 99.0869C29.8265 98.9281 29.7063 98.7345 29.6357 98.5215C29.5653 98.3084 29.5454 98.0814 29.5781 97.8594L29.584 97.8232V92.583L33.1377 86.2383L33.2021 86.124V79.2344H34.9375V70.6797H33.2021V63.8037H34.9375V55.2539H33.2021V48.374H34.9375V39.8145H33.2021V32.6963L33.0479 32.5479L29.584 29.2334V19.3477L29.5781 19.3105C29.5449 19.0884 29.5645 18.8611 29.6348 18.6475C29.7051 18.4338 29.8247 18.2401 29.9834 18.0811C30.1422 17.9219 30.3363 17.8012 30.5498 17.7305C30.763 17.6599 30.9898 17.6401 31.2119 17.6729L31.249 17.6787H33.6787L33.8193 17.5566L38.543 13.4639L38.5586 13.4502L38.5781 13.4307L38.7197 13.2852V6.33691L38.2832 6.28125C37.0841 6.12727 36.2576 5.77071 35.7344 5.26758C35.2234 4.77617 34.9458 4.09098 34.9473 3.15039V3.11719Z" fill="white" stroke="#CACACA"/>
</g>
<defs>
<clipPath id="clip0_45_6">
<rect width="100" height="100" fill="white"/>
</clipPath>
</defs>
</svg>
